<svg width="14" height="12" viewBox="0 0 14 12" fill="none" xmlns="http://www.w3.org/2000/svg">
<path fill-rule="evenodd" clip-rule="evenodd" d="M6.73547 2.51599V9.81006C6.35991 9.42406 5.84214 9.19129 5.28431 9.19129H1.22109V1.06484H5.28431C6.08419 1.06484 6.73547 1.71611 6.73547 2.51599ZM8.76708 1.06484H12.8303V9.19129H8.76708C8.19881 9.19129 7.6851 9.42754 7.31593 9.80542V2.51599C7.31593 1.71611 7.9672 1.06484 8.76708 1.06484ZM0.930856 9.77175H5.28431C5.86419 9.77175 6.38777 10.1183 6.61821 10.6546C6.696 10.8346 6.73547 11.0261 6.73547 11.2229C6.73547 11.3831 6.86549 11.5131 7.0257 11.5131C7.1859 11.5131 7.31593 11.3831 7.31593 11.2229C7.31593 10.423 7.9672 9.77175 8.76708 9.77175H13.1205C13.2807 9.77175 13.4108 9.64173 13.4108 9.48152V0.774606C13.4108 0.614398 13.2807 0.484375 13.1205 0.484375H8.76708C8.02409 0.484375 7.37978 0.889537 7.0257 1.48625C6.67162 0.889537 6.0273 0.484375 5.28431 0.484375H0.930856C0.770648 0.484375 0.640625 0.614398 0.640625 0.774606V9.48152C0.640625 9.64173 0.770648 9.77175 0.930856 9.77175Z" fill="white"/>
</svg>
