<svg width="74" height="20" viewBox="0 0 74 20" fill="none" xmlns="http://www.w3.org/2000/svg">
<rect opacity="0.85" x="0.351562" width="73" height="20" rx="10" fill="white"/>
<path fill-rule="evenodd" clip-rule="evenodd" d="M20.9242 11.0935C20.9242 11.5558 20.549 11.932 20.0877 11.932H19.3809V7.91367H20.0872C20.549 7.91367 20.9242 8.28989 20.9242 8.75218V11.093V11.0935ZM15.3544 15.7245C15.0749 15.7245 14.8481 15.4977 14.8481 15.2182C14.8481 14.9392 15.0749 14.7118 15.3544 14.7118C15.6339 14.7118 15.8608 14.9392 15.8608 15.2182C15.8608 15.4977 15.6339 15.7245 15.3544 15.7245ZM11.3275 11.9325H10.6211C10.1599 11.9325 9.78466 11.5563 9.78466 11.0935V8.75268C9.78466 8.29039 10.1599 7.91418 10.6211 7.91418H11.3275V11.933V11.9325ZM20.0872 7.40784H19.3626C19.2928 6.50604 18.8887 5.66956 18.2239 5.04878C17.554 4.42345 16.6816 4.07812 15.7671 4.07812H14.9413C14.0273 4.07812 13.1549 4.42345 12.485 5.04878C11.8202 5.66905 11.4161 6.50655 11.3462 7.40784H10.6211C9.88036 7.40784 9.27832 8.0114 9.27832 8.75268V11.0935C9.27832 11.8353 9.88036 12.4389 10.6211 12.4389H11.5807C11.7204 12.4389 11.8338 12.3254 11.8338 12.1857V7.67063L11.8505 7.45391C11.9088 6.67668 12.2571 5.95413 12.8303 5.41892C13.406 4.88119 14.1559 4.58447 14.9413 4.58447L15.7671 4.58497C16.553 4.58497 17.3028 4.88119 17.8786 5.41842C18.4517 5.95413 18.8001 6.67718 18.8583 7.45442L18.875 7.6605L18.8745 12.1756L18.8578 12.3908C18.7581 13.646 17.9216 14.7088 16.7575 15.0891L16.3616 15.165C16.3337 14.6323 15.8947 14.2055 15.3544 14.2055C14.7959 14.2055 14.3418 14.6592 14.3418 15.2177C14.3418 15.7772 14.7959 16.2304 15.3544 16.2304C15.7352 16.2304 16.0638 16.0172 16.2365 15.7053L16.8836 15.5782C18.271 15.1275 19.2432 13.8956 19.3616 12.4389H20.0877C20.8285 12.4389 21.4306 11.8353 21.4306 11.0935V8.75268C21.4306 8.0114 20.828 7.40784 20.0872 7.40784Z" fill="#197ACF"/>
<path d="M40.9902 13.1797H40.082V7.15918L38.2607 7.82812V7.00781L40.8486 6.03613H40.9902V13.1797ZM47.4502 10.792H48.4365V11.5293H47.4502V13.1797H46.542V11.5293H43.3047V10.9971L46.4883 6.07031H47.4502V10.792ZM44.3301 10.792H46.542V7.30566L46.4346 7.50098L44.3301 10.792ZM49.3154 12.7061C49.3154 12.5498 49.361 12.4196 49.4521 12.3154C49.5465 12.2113 49.6865 12.1592 49.8721 12.1592C50.0576 12.1592 50.1976 12.2113 50.292 12.3154C50.3896 12.4196 50.4385 12.5498 50.4385 12.7061C50.4385 12.8558 50.3896 12.9811 50.292 13.082C50.1976 13.1829 50.0576 13.2334 49.8721 13.2334C49.6865 13.2334 49.5465 13.1829 49.4521 13.082C49.361 12.9811 49.3154 12.8558 49.3154 12.7061ZM49.3203 8.39453C49.3203 8.23828 49.3659 8.10807 49.457 8.00391C49.5514 7.89974 49.6914 7.84766 49.877 7.84766C50.0625 7.84766 50.2025 7.89974 50.2969 8.00391C50.3945 8.10807 50.4434 8.23828 50.4434 8.39453C50.4434 8.54427 50.3945 8.6696 50.2969 8.77051C50.2025 8.87142 50.0625 8.92188 49.877 8.92188C49.6914 8.92188 49.5514 8.87142 49.457 8.77051C49.3659 8.6696 49.3203 8.54427 49.3203 8.39453ZM52.9873 9.18555H53.666C54.0924 9.17904 54.4277 9.06673 54.6719 8.84863C54.916 8.63053 55.0381 8.33594 55.0381 7.96484C55.0381 7.13151 54.623 6.71484 53.793 6.71484C53.4023 6.71484 53.0898 6.82715 52.8555 7.05176C52.6243 7.27311 52.5088 7.56771 52.5088 7.93555H51.6055C51.6055 7.3724 51.8105 6.90527 52.2207 6.53418C52.6341 6.15983 53.1582 5.97266 53.793 5.97266C54.4635 5.97266 54.9893 6.15007 55.3701 6.50488C55.751 6.8597 55.9414 7.35286 55.9414 7.98438C55.9414 8.29362 55.8405 8.5931 55.6387 8.88281C55.4401 9.17253 55.1683 9.389 54.8232 9.53223C55.2139 9.65592 55.515 9.861 55.7266 10.1475C55.9414 10.4339 56.0488 10.7839 56.0488 11.1973C56.0488 11.8353 55.8405 12.3415 55.4238 12.7158C55.0072 13.0902 54.4652 13.2773 53.7979 13.2773C53.1305 13.2773 52.5869 13.0967 52.167 12.7354C51.7503 12.374 51.542 11.8971 51.542 11.3047H52.4502C52.4502 11.679 52.5723 11.9785 52.8164 12.2031C53.0605 12.4277 53.3877 12.54 53.7979 12.54C54.234 12.54 54.5677 12.4261 54.7988 12.1982C55.0299 11.9704 55.1455 11.6432 55.1455 11.2168C55.1455 10.8034 55.0186 10.486 54.7646 10.2646C54.5107 10.0433 54.1445 9.92936 53.666 9.92285H52.9873V9.18555ZM57.7041 9.61523L58.0654 6.07031H61.708V6.90527H58.832L58.6172 8.84375C58.9655 8.63867 59.361 8.53613 59.8037 8.53613C60.4515 8.53613 60.9658 8.75098 61.3467 9.18066C61.7275 9.6071 61.918 10.1849 61.918 10.9141C61.918 11.6465 61.7194 12.2243 61.3223 12.6475C60.9284 13.0674 60.3766 13.2773 59.667 13.2773C59.0387 13.2773 58.526 13.1032 58.1289 12.7549C57.7318 12.4066 57.5055 11.9248 57.4502 11.3096H58.3047C58.36 11.7165 58.5049 12.0241 58.7393 12.2324C58.9736 12.4375 59.2829 12.54 59.667 12.54C60.0869 12.54 60.4157 12.3968 60.6533 12.1104C60.8942 11.8239 61.0146 11.4284 61.0146 10.9238C61.0146 10.4486 60.8844 10.0677 60.624 9.78125C60.3669 9.49154 60.0234 9.34668 59.5938 9.34668C59.1999 9.34668 58.8906 9.43294 58.666 9.60547L58.4268 9.80078L57.7041 9.61523Z" fill="#197ACF"/>
<path d="M29.4307 4.03516V15.5437" stroke="#197ACF" stroke-width="0.5"/>
</svg>
