<svg width="24" height="24" viewBox="0 0 24 24" fill="none" xmlns="http://www.w3.org/2000/svg">
<path d="M8.89062 3.3916H5.49024C4.93353 3.39207 4.39976 3.61343 4.0061 4.00708C3.61245 4.40073 3.39109 4.9345 3.39062 5.49121V8.89062C3.39105 9.44743 3.61237 9.98133 4.006 10.3751C4.39963 10.769 4.93343 10.9905 5.49024 10.9912H8.89062C9.44743 10.9905 9.98123 10.769 10.3749 10.3751C10.7685 9.98133 10.9898 9.44743 10.9902 8.89062V5.49121C10.9898 4.9345 10.7684 4.40073 10.3748 4.00708C9.9811 3.61343 9.44733 3.39207 8.89062 3.3916ZM9.39062 8.8906C9.38892 9.02277 9.33573 9.14907 9.24236 9.24263C9.14898 9.33619 9.02279 9.38964 8.89062 9.3916H5.49024C5.35807 9.38964 5.23188 9.33619 5.1385 9.24263C5.04513 9.14907 4.99194 9.02277 4.99024 8.8906V5.49121C4.99214 5.3592 5.04544 5.23313 5.13879 5.13977C5.23215 5.04641 5.35822 4.99312 5.49024 4.99121H8.89062C9.02264 4.99312 9.14871 5.04641 9.24207 5.13977C9.33542 5.23313 9.38872 5.3592 9.39062 5.49121V8.8906Z" fill="#999999"/>
<path d="M18.5098 3.3916H15.1094C14.5527 3.39207 14.0189 3.61343 13.6252 4.00708C13.2316 4.40073 13.0102 4.9345 13.0098 5.49121V8.89062C13.0102 9.44743 13.2315 9.98133 13.6251 10.3751C14.0188 10.769 14.5526 10.9905 15.1094 10.9912H18.5098C19.0666 10.9905 19.6004 10.769 19.994 10.3751C20.3876 9.98133 20.6089 9.44743 20.6094 8.89062V5.49121C20.6089 4.9345 20.3875 4.40073 19.9939 4.00708C19.6002 3.61343 19.0665 3.39207 18.5098 3.3916ZM19.0098 8.8906C19.0081 9.02277 18.9549 9.14907 18.8615 9.24263C18.7681 9.33619 18.6419 9.38964 18.5098 9.3916H15.1094C14.9772 9.38964 14.851 9.33619 14.7576 9.24263C14.6643 9.14907 14.6111 9.02277 14.6094 8.8906V5.49121C14.6113 5.3592 14.6646 5.23313 14.7579 5.13977C14.8513 5.04641 14.9774 4.99312 15.1094 4.99121H18.5098C18.6418 4.99312 18.7678 5.04641 18.8612 5.13977C18.9546 5.23313 19.0079 5.3592 19.0098 5.49121V8.8906Z" fill="#999999"/>
<path d="M8.89062 13.0078H5.49024C4.93353 13.0083 4.39976 13.2296 4.0061 13.6233C3.61245 14.0169 3.39109 14.5507 3.39062 15.1074V18.5078C3.39109 19.0645 3.61245 19.5983 4.0061 19.9919C4.39976 20.3856 4.93353 20.607 5.49024 20.6074H8.89062C9.44733 20.607 9.9811 20.3856 10.3748 19.9919C10.7684 19.5983 10.9898 19.0645 10.9902 18.5078V15.1074C10.9898 14.5507 10.7684 14.0169 10.3748 13.6233C9.9811 13.2296 9.44733 13.0083 8.89062 13.0078ZM9.39062 18.5078C9.38872 18.6398 9.33542 18.7659 9.24207 18.8593C9.14871 18.9526 9.02264 19.0059 8.89062 19.0078H5.49024C5.35822 19.0059 5.23215 18.9526 5.13879 18.8593C5.04544 18.7659 4.99214 18.6398 4.99024 18.5078V15.1074C4.99215 14.9754 5.04544 14.8493 5.1388 14.756C5.23215 14.6626 5.35822 14.6093 5.49024 14.6074H8.89062C9.02264 14.6093 9.14871 14.6626 9.24206 14.756C9.33542 14.8493 9.38871 14.9754 9.39062 15.1074V18.5078Z" fill="#999999"/>
<path d="M18.5078 13.0078H15.1074C14.5507 13.0083 14.0169 13.2296 13.6233 13.6233C13.2296 14.0169 13.0083 14.5507 13.0078 15.1074V18.5078C13.0083 19.0645 13.2296 19.5983 13.6233 19.9919C14.0169 20.3856 14.5507 20.607 15.1074 20.6074H18.5078C19.0645 20.607 19.5983 20.3856 19.9919 19.9919C20.3856 19.5983 20.607 19.0645 20.6074 18.5078V15.1074C20.607 14.5507 20.3856 14.0169 19.9919 13.6233C19.5983 13.2296 19.0645 13.0083 18.5078 13.0078ZM19.0078 18.5078C19.0059 18.6398 18.9526 18.7659 18.8593 18.8593C18.7659 18.9526 18.6398 19.0059 18.5078 19.0078H15.1074C14.9754 19.0059 14.8493 18.9526 14.756 18.8593C14.6626 18.7659 14.6093 18.6398 14.6074 18.5078V15.1074C14.6093 14.9754 14.6626 14.8493 14.756 14.756C14.8493 14.6626 14.9754 14.6093 15.1074 14.6074H18.5078C18.6398 14.6093 18.7659 14.6626 18.8593 14.756C18.9526 14.8493 19.0059 14.9754 19.0078 15.1074V18.5078Z" fill="#999999"/>
</svg>
