<svg width="24" height="24" viewBox="0 0 24 24" fill="none" xmlns="http://www.w3.org/2000/svg">
<path d="M22 4H15V5.6H21.4V16.4H6.6V15.8H5V17C5 17.6 5.4 18 6 18H11.7V20.7H9C8.6 20.7 8.2 21.1 8.2 21.5C8.2 21.9 8.6 22.3 9 22.3H19C19.4 22.3 19.8 21.9 19.8 21.5C19.8 21.1 19.4 20.7 19 20.7H16.3V18H22C22.6 18 23 17.6 23 17V5C23 4.4 22.5 4 22 4ZM14.7 20.7H13.3V18H14.7V20.7Z" fill="#999999"/>
<path d="M9.9 5.3V9.3C9.9 10.7 8.9 11.9 7.6 12.1C7.4 11.9 7.1 11.7 6.8 11.7C6.2 11.7 5.8 12.1 5.8 12.7C5.8 13.3 6.2 13.7 6.8 13.7C7.2 13.7 7.5 13.5 7.7 13.2C9.2 12.9 10.5 11.8 10.8 10.3H11.8C12.5 10.3 13 9.8 13 9.1V7C13 6.3 12.5 5.8 11.8 5.8H11.2V5.3C11.3 2.9 9.4 1 7 1C4.6 1 2.7 2.9 2.7 5.2V5.8H2.2C1.5 5.8 1 6.3 1 7V9.1C1 9.8 1.5 10.3 2.2 10.3H3.8C3.9 10.3 4 10.2 4 10.1V5.3C4 3.7 5.3 2.4 6.9 2.4C8.5 2.4 9.9 3.6 9.9 5.3Z" fill="#999999"/>
</svg>
