<svg width="21" height="21" viewBox="0 0 21 21" fill="none" xmlns="http://www.w3.org/2000/svg">
<path d="M10.7109 0.195312C5.19094 0.195312 0.710938 4.67531 0.710938 10.1953C0.710938 15.7153 5.19094 20.1953 10.7109 20.1953C16.2309 20.1953 20.7109 15.7153 20.7109 10.1953C20.7109 4.67531 16.2309 0.195312 10.7109 0.195312ZM11.7109 17.1953H9.71094V15.1953H11.7109V17.1953ZM13.7809 9.44531L12.8809 10.3653C12.1609 11.0953 11.7109 11.6953 11.7109 13.1953H9.71094V12.6953C9.71094 11.5953 10.1609 10.5953 10.8809 9.86531L12.1209 8.60531C12.4909 8.24531 12.7109 7.74531 12.7109 7.19531C12.7109 6.09531 11.8109 5.19531 10.7109 5.19531C9.61094 5.19531 8.71094 6.09531 8.71094 7.19531H6.71094C6.71094 4.98531 8.50094 3.19531 10.7109 3.19531C12.9209 3.19531 14.7109 4.98531 14.7109 7.19531C14.7109 8.07531 14.3509 8.87531 13.7809 9.44531Z" fill="url(#paint0_linear)"/>
<defs>
<linearGradient id="paint0_linear" x1="0.702062" y1="0.195313" x2="22.2731" y2="18.3262" gradientUnits="userSpaceOnUse">
<stop stop-color="white"/>
<stop offset="1" stop-color="#F8FDFF"/>
</linearGradient>
</defs>
</svg>
