<svg width="20" height="12" viewBox="0 0 20 12" fill="none" xmlns="http://www.w3.org/2000/svg">
<path fill-rule="evenodd" clip-rule="evenodd" d="M18.3527 4.95364C18.6408 4.95364 18.8747 4.71977 18.8747 4.43161V1.29938C18.8747 1.23152 18.8611 1.16365 18.834 1.09996C18.7818 0.972586 18.6795 0.870266 18.5521 0.818063C18.4884 0.790917 18.4205 0.777344 18.3527 0.777344H15.2205C14.9323 0.777344 14.6984 1.01122 14.6984 1.29938C14.6984 1.58755 14.9323 1.82142 15.2205 1.82142H17.0925L11.0442 7.86975L8.28153 5.10608C8.09047 4.91606 7.7856 4.90249 7.57783 5.07476L1.31338 10.2951C1.09203 10.4789 1.06175 10.8088 1.24655 11.0302C1.34992 11.1544 1.49818 11.2181 1.64748 11.2181C1.76546 11.2181 1.88448 11.1784 1.98158 11.097L7.87956 6.18148L10.6746 8.97751C10.8792 9.18111 11.2091 9.18111 11.4138 8.97751L17.8306 2.55958V4.43161C17.8306 4.71977 18.0645 4.95364 18.3527 4.95364Z" fill="url(#paint0_linear)" stroke="#1A8DE9" stroke-width="0.6"/>
<defs>
<linearGradient id="paint0_linear" x1="18.7141" y1="11.1438" x2="0.502387" y2="8.91055" gradientUnits="userSpaceOnUse">
<stop stop-color="#197ACF"/>
<stop offset="1" stop-color="#1A8DE9"/>
</linearGradient>
</defs>
</svg>
