<svg width="20" height="20" viewBox="0 0 20 20" fill="none" xmlns="http://www.w3.org/2000/svg">
<circle opacity="0.85" cx="10" cy="10" r="10" fill="white"/>
<path fill-rule="evenodd" clip-rule="evenodd" d="M14.8724 9.3893C15.0405 9.3893 15.177 9.25288 15.177 9.08478V7.25765C15.177 7.21806 15.169 7.17847 15.1532 7.14132C15.1228 7.06702 15.0631 7.00733 14.9888 6.97688C14.9516 6.96104 14.912 6.95312 14.8724 6.95312H13.0453C12.8772 6.95312 12.7408 7.08955 12.7408 7.25765C12.7408 7.42574 12.8772 7.56217 13.0453 7.56217H14.1373L10.6091 11.0904L8.9976 9.47822C8.88615 9.36738 8.70831 9.35946 8.58711 9.45995L4.93284 12.5052C4.80373 12.6124 4.78606 12.8048 4.89386 12.9339C4.95416 13.0064 5.04064 13.0436 5.12774 13.0436C5.19656 13.0436 5.26599 13.0204 5.32263 12.9729L8.76312 10.1055L10.3935 11.7366C10.5129 11.8553 10.7054 11.8553 10.8247 11.7366L14.5679 7.99276V9.08478C14.5679 9.25288 14.7043 9.3893 14.8724 9.3893Z" fill="#1A8DE9" stroke="#1A8DE9" stroke-width="0.6"/>
</svg>
