<svg width="19" height="13" viewBox="0 0 19 13" fill="none" xmlns="http://www.w3.org/2000/svg">
<path d="M7.72656 11.1836C7.72656 11.7359 8.17428 12.1836 8.72656 12.1836H10.7266C11.2788 12.1836 11.7266 11.7359 11.7266 11.1836C11.7266 10.6313 11.2788 10.1836 10.7266 10.1836H8.72656C8.17428 10.1836 7.72656 10.6313 7.72656 11.1836ZM1.72656 0.183594C1.17428 0.183594 0.726562 0.631309 0.726562 1.18359C0.726562 1.73588 1.17428 2.18359 1.72656 2.18359H17.7266C18.2788 2.18359 18.7266 1.73588 18.7266 1.18359C18.7266 0.631309 18.2788 0.183594 17.7266 0.183594H1.72656ZM3.72656 6.18359C3.72656 6.73588 4.17428 7.18359 4.72656 7.18359H14.7266C15.2788 7.18359 15.7266 6.73588 15.7266 6.18359C15.7266 5.63131 15.2788 5.18359 14.7266 5.18359H4.72656C4.17428 5.18359 3.72656 5.63131 3.72656 6.18359Z" fill="white"/>
</svg>
