<svg width="24" height="24" viewBox="0 0 24 24" fill="none" xmlns="http://www.w3.org/2000/svg">
<path fill-rule="evenodd" clip-rule="evenodd" d="M11.995 2.68598L20.5433 12.4561H19.7269C19.476 12.4561 19.2724 12.6588 19.2724 12.9106V21.5471H14.7269V15.6379C14.7269 15.3861 14.5241 15.1834 14.2723 15.1834H9.7268C9.47589 15.1834 9.27225 15.3861 9.27225 15.6379V21.5471H4.72674V12.9106C4.72674 12.6588 4.52401 12.4561 4.27219 12.4561H3.36309L5.54493 9.54606C5.60402 9.46787 5.63584 9.37242 5.63584 9.27423V5.18328H7.45404V6.54693C7.45404 6.73511 7.57041 6.9033 7.74587 6.97057C7.92314 7.03875 8.12132 6.98966 8.24678 6.85057L11.995 2.68598ZM7.90859 4.27418H5.18129C4.93038 4.27418 4.72674 4.47691 4.72674 4.72873V9.12241L2.09035 12.6379C1.98762 12.7752 1.97126 12.9597 2.04762 13.1134C2.12489 13.2679 2.28217 13.3652 2.45399 13.3652H3.81764V22.0016C3.81764 22.2526 4.02128 22.4562 4.27219 22.4562H9.7268C9.97862 22.4562 10.1813 22.2526 10.1813 22.0016V16.0925H13.8178V22.0016C13.8178 22.2526 14.0214 22.4562 14.2723 22.4562H19.7269C19.9787 22.4562 20.1815 22.2526 20.1815 22.0016V13.3652H21.5451C21.7242 13.3652 21.8851 13.2606 21.9588 13.0979C22.0333 12.9352 22.0051 12.7452 21.8878 12.6106L12.3423 1.70142C12.2568 1.60415 12.1332 1.54778 12.0032 1.54688C11.8805 1.54869 11.7486 1.60051 11.6623 1.69688L8.36315 5.36146V4.72873C8.36315 4.47691 8.16042 4.27418 7.90859 4.27418Z" fill="#197ACF"/>
<path d="M7.90859 4.27418H5.18129C4.93038 4.27418 4.72674 4.47691 4.72674 4.72873V9.12241L2.09035 12.6379C1.98762 12.7752 1.97126 12.9597 2.04762 13.1134C2.12489 13.2679 2.28217 13.3652 2.45399 13.3652H3.81764V22.0016C3.81764 22.2526 4.02128 22.4562 4.27219 22.4562H9.7268C9.97862 22.4562 10.1813 22.2526 10.1813 22.0016V16.0925H13.8178V22.0016C13.8178 22.2526 14.0214 22.4562 14.2723 22.4562H19.7269C19.9787 22.4562 20.1815 22.2526 20.1815 22.0016V13.3652H21.5451C21.7242 13.3652 21.8851 13.2606 21.9588 13.0979C22.0333 12.9352 22.0051 12.7452 21.8878 12.6106L12.3423 1.70142C12.2568 1.60415 12.1332 1.54778 12.0032 1.54688C11.8805 1.54869 11.7486 1.60051 11.6623 1.69688L8.36315 5.36146V4.72873C8.36315 4.47691 8.16042 4.27418 7.90859 4.27418M11.995 2.68598L20.5433 12.4561H19.7269C19.476 12.4561 19.2724 12.6588 19.2724 12.9106V21.5471H14.7269V15.6379C14.7269 15.3861 14.5241 15.1834 14.2723 15.1834H9.7268C9.47589 15.1834 9.27225 15.3861 9.27225 15.6379V21.5471H4.72674V12.9106C4.72674 12.6588 4.52401 12.4561 4.27219 12.4561H3.36309L5.54493 9.54606C5.60402 9.46787 5.63584 9.37242 5.63584 9.27423V5.18328H7.45404V6.54693C7.45404 6.73511 7.57041 6.9033 7.74587 6.97057C7.92314 7.03875 8.12132 6.98966 8.24678 6.85057L11.995 2.68598V2.68598Z" stroke="#197ACF" stroke-width="0.5"/>
</svg>
