<svg width="25" height="24" viewBox="0 0 25 24" fill="none" xmlns="http://www.w3.org/2000/svg">
<circle cx="12.0273" cy="12" r="12" fill="url(#paint0_linear)"/>
<path fill-rule="evenodd" clip-rule="evenodd" d="M7.67219 9.80702H10.5745C10.7347 9.80702 10.8647 9.677 10.8647 9.51679C10.8647 9.35659 10.7347 9.22656 10.5745 9.22656H7.67219C7.51198 9.22656 7.38196 9.35659 7.38196 9.51679C7.38196 9.677 7.51198 9.80702 7.67219 9.80702Z" fill="white"/>
<path fill-rule="evenodd" clip-rule="evenodd" d="M7.67219 11.5492H10.5745C10.7347 11.5492 10.8647 11.4192 10.8647 11.259C10.8647 11.0988 10.7347 10.9688 10.5745 10.9688H7.67219C7.51198 10.9688 7.38196 11.0988 7.38196 11.259C7.38196 11.4192 7.51198 11.5492 7.67219 11.5492Z" fill="white"/>
<path fill-rule="evenodd" clip-rule="evenodd" d="M7.67219 13.2875H10.5745C10.7347 13.2875 10.8647 13.1575 10.8647 12.9973C10.8647 12.8371 10.7347 12.707 10.5745 12.707H7.67219C7.51198 12.707 7.38196 12.8371 7.38196 12.9973C7.38196 13.1575 7.51198 13.2875 7.67219 13.2875Z" fill="white"/>
<path fill-rule="evenodd" clip-rule="evenodd" d="M10.5745 14.4492H7.67219C7.51198 14.4492 7.38196 14.5792 7.38196 14.7394C7.38196 14.8997 7.51198 15.0297 7.67219 15.0297H10.5745C10.7347 15.0297 10.8647 14.8997 10.8647 14.7394C10.8647 14.5792 10.7347 14.4492 10.5745 14.4492Z" fill="white"/>
<path fill-rule="evenodd" clip-rule="evenodd" d="M13.4769 9.80702H16.3792C16.5394 9.80702 16.6694 9.677 16.6694 9.51679C16.6694 9.35659 16.5394 9.22656 16.3792 9.22656H13.4769C13.3167 9.22656 13.1866 9.35659 13.1866 9.51679C13.1866 9.677 13.3167 9.80702 13.4769 9.80702Z" fill="white"/>
<path fill-rule="evenodd" clip-rule="evenodd" d="M13.4769 11.5492H16.3792C16.5394 11.5492 16.6694 11.4192 16.6694 11.259C16.6694 11.0988 16.5394 10.9688 16.3792 10.9688H13.4769C13.3167 10.9688 13.1866 11.0988 13.1866 11.259C13.1866 11.4192 13.3167 11.5492 13.4769 11.5492Z" fill="white"/>
<path fill-rule="evenodd" clip-rule="evenodd" d="M13.4769 13.2875H16.3792C16.5394 13.2875 16.6694 13.1575 16.6694 12.9973C16.6694 12.8371 16.5394 12.707 16.3792 12.707H13.4769C13.3167 12.707 13.1866 12.8371 13.1866 12.9973C13.1866 13.1575 13.3167 13.2875 13.4769 13.2875Z" fill="white"/>
<path fill-rule="evenodd" clip-rule="evenodd" d="M13.4769 15.0297H16.3792C16.5394 15.0297 16.6694 14.8997 16.6694 14.7394C16.6694 14.5792 16.5394 14.4492 16.3792 14.4492H13.4769C13.3167 14.4492 13.1866 14.5792 13.1866 14.7394C13.1866 14.8997 13.3167 15.0297 13.4769 15.0297Z" fill="white"/>
<path fill-rule="evenodd" clip-rule="evenodd" d="M11.7355 9.51599V16.8101C11.3599 16.4241 10.8421 16.1913 10.2843 16.1913H6.22109V8.06484H10.2843C11.0842 8.06484 11.7355 8.71611 11.7355 9.51599ZM13.7671 8.06484H17.8303V16.1913H13.7671C13.1988 16.1913 12.6851 16.4275 12.3159 16.8054V9.51599C12.3159 8.71611 12.9672 8.06484 13.7671 8.06484ZM5.93086 16.7718H10.2843C10.8642 16.7718 11.3878 17.1183 11.6182 17.6546C11.696 17.8346 11.7355 18.0261 11.7355 18.2229C11.7355 18.3831 11.8655 18.5131 12.0257 18.5131C12.1859 18.5131 12.3159 18.3831 12.3159 18.2229C12.3159 17.423 12.9672 16.7718 13.7671 16.7718H18.1205C18.2807 16.7718 18.4108 16.6417 18.4108 16.4815V7.77461C18.4108 7.6144 18.2807 7.48438 18.1205 7.48438H13.7671C13.0241 7.48438 12.3798 7.88954 12.0257 8.48625C11.6716 7.88954 11.0273 7.48438 10.2843 7.48438H5.93086C5.77065 7.48438 5.64062 7.6144 5.64062 7.77461V16.4815C5.64062 16.6417 5.77065 16.7718 5.93086 16.7718Z" fill="white"/>
<defs>
<linearGradient id="paint0_linear" x1="23.8102" y1="23.8293" x2="-1.05612" y2="22.0356" gradientUnits="userSpaceOnUse">
<stop stop-color="#197ACF"/>
<stop offset="1" stop-color="#1A8DE9"/>
</linearGradient>
</defs>
</svg>
