<svg width="25" height="24" viewBox="0 0 25 24" fill="none" xmlns="http://www.w3.org/2000/svg">
<circle cx="12.0273" cy="12" r="12" fill="url(#paint0_linear)"/>
<path fill-rule="evenodd" clip-rule="evenodd" d="M18.394 13.0714C18.394 13.5996 17.9653 14.0296 17.4382 14.0296H16.6304V9.43768H17.4376C17.9653 9.43768 18.394 9.86759 18.394 10.3959V13.0708V13.0714ZM12.0293 18.3634C11.7099 18.3634 11.4507 18.1042 11.4507 17.7848C11.4507 17.4659 11.7099 17.2061 12.0293 17.2061C12.3487 17.2061 12.6079 17.4659 12.6079 17.7848C12.6079 18.1042 12.3487 18.3634 12.0293 18.3634ZM7.42759 14.0301H6.62042C6.0933 14.0301 5.66455 13.6002 5.66455 13.0714V10.3964C5.66455 9.86817 6.0933 9.43826 6.62042 9.43826H7.42759V14.0307V14.0301ZM17.4376 8.85965H16.6096C16.5298 7.82914 16.068 6.87327 15.3083 6.16389C14.5428 5.4493 13.5458 5.05469 12.5009 5.05469H11.5571C10.5128 5.05469 9.5158 5.4493 8.7503 6.16389C7.99058 6.87269 7.52884 7.82972 7.44899 8.85965H6.62042C5.77391 8.85965 5.08594 9.54936 5.08594 10.3964V13.0714C5.08594 13.919 5.77391 14.6087 6.62042 14.6087H7.71689C7.87659 14.6087 8.0062 14.4791 8.0062 14.3194V9.15995L8.02529 8.9123C8.09183 8.02413 8.48992 7.19845 9.14491 6.58686C9.80279 5.97237 10.6597 5.6333 11.5571 5.6333L12.5009 5.63388C13.3989 5.63388 14.2558 5.97237 14.9137 6.58628C15.5687 7.19845 15.9668 8.02471 16.0333 8.91288L16.0524 9.14838L16.0518 14.3079L16.0327 14.5538C15.9187 15.9882 14.9629 17.2027 13.6326 17.6372L13.1802 17.724C13.1483 17.1153 12.6467 16.6275 12.0293 16.6275C11.3911 16.6275 10.8721 17.146 10.8721 17.7842C10.8721 18.4235 11.3911 18.9414 12.0293 18.9414C12.4644 18.9414 12.8399 18.6978 13.0372 18.3414L13.7767 18.1962C15.3621 17.6812 16.473 16.2734 16.6084 14.6087H17.4382C18.2847 14.6087 18.9727 13.919 18.9727 13.0714V10.3964C18.9727 9.54936 18.2841 8.85965 17.4376 8.85965Z" fill="white"/>
<defs>
<linearGradient id="paint0_linear" x1="23.8102" y1="23.8293" x2="-1.05612" y2="22.0356" gradientUnits="userSpaceOnUse">
<stop stop-color="#197ACF"/>
<stop offset="1" stop-color="#1A8DE9"/>
</linearGradient>
</defs>
</svg>
