<svg width="25" height="24" viewBox="0 0 25 24" fill="none" xmlns="http://www.w3.org/2000/svg">
<circle cx="12.0273" cy="12" r="12" fill="url(#paint0_linear)"/>
<path fill-rule="evenodd" clip-rule="evenodd" d="M18.444 16.375L16.694 15.0625V13.5208L18.444 12.2742V16.375ZM16.1107 13.3708V15.7917C16.1107 16.2741 15.7181 16.6667 15.2357 16.6667H6.48568C6.00326 16.6667 5.61068 16.2741 5.61068 15.7917V12.875C5.61068 12.3926 6.00326 12 6.48568 12H15.2357C15.7181 12 16.1107 12.3926 16.1107 12.875V13.3708ZM6.77734 9.375C6.77734 8.24917 7.69318 7.33333 8.81901 7.33333C9.94484 7.33333 10.8607 8.24917 10.8607 9.375C10.8607 10.5008 9.94484 11.4167 8.81901 11.4167C7.69318 11.4167 6.77734 10.5008 6.77734 9.375ZM11.8558 11.4167H10.4488C10.7417 11.1827 10.9814 10.8899 11.1523 10.5527C11.3233 10.8899 11.563 11.1827 11.8558 11.4167ZM13.4857 7.33333C14.6115 7.33333 15.5273 8.24917 15.5273 9.375C15.5273 10.5008 14.6115 11.4167 13.4857 11.4167C12.3598 11.4167 11.444 10.5008 11.444 9.375C11.444 8.24917 12.3598 7.33333 13.4857 7.33333ZM18.8693 11.4493C18.7718 11.3992 18.6546 11.4073 18.5665 11.4709L16.687 12.8097C16.6526 12.0362 16.0179 11.4167 15.2357 11.4167H15.1155C15.7169 10.9354 16.1107 10.2039 16.1107 9.375C16.1107 7.92775 14.9329 6.75 13.4857 6.75C12.4637 6.75 11.5858 7.34325 11.1523 8.19725C10.7189 7.34325 9.84101 6.75 8.81901 6.75C7.37176 6.75 6.19401 7.92775 6.19401 9.375C6.19401 10.2039 6.58776 10.9354 7.18918 11.4167H6.48568C5.68126 11.4167 5.02734 12.0706 5.02734 12.875V15.7917C5.02734 16.5961 5.68126 17.25 6.48568 17.25H15.2357C16.0401 17.25 16.694 16.5961 16.694 15.7917L18.5607 17.1917C18.612 17.2302 18.6738 17.25 18.7357 17.25C18.78 17.25 18.8249 17.2395 18.8663 17.2191C18.9649 17.1695 19.0273 17.0686 19.0273 16.9583V11.7083C19.0273 11.5987 18.9667 11.4995 18.8693 11.4493Z" fill="white"/>
<defs>
<linearGradient id="paint0_linear" x1="23.8102" y1="23.8293" x2="-1.05612" y2="22.0356" gradientUnits="userSpaceOnUse">
<stop stop-color="#197ACF"/>
<stop offset="1" stop-color="#1A8DE9"/>
</linearGradient>
</defs>
</svg>
