<svg width="25" height="24" viewBox="0 0 25 24" fill="none" xmlns="http://www.w3.org/2000/svg">
<circle cx="12.0273" cy="12" r="12" fill="url(#paint0_linear)"/>
<path fill-rule="evenodd" clip-rule="evenodd" d="M13.9952 8.5965C14.398 8.82909 14.5366 9.34621 14.304 9.74906C14.0714 10.1519 13.5543 10.2905 13.1514 10.0579C12.7486 9.8253 12.61 9.30819 12.8426 8.90533C13.0752 8.50247 13.5923 8.36391 13.9952 8.5965ZM12.8702 10.545C13.542 10.9329 14.4036 10.7016 14.7911 10.0303C15.1787 9.35904 14.9482 8.4972 14.2764 8.10936C13.6047 7.72153 12.743 7.95281 12.3555 8.62408C11.9679 9.29535 12.1984 10.1572 12.8702 10.545Z" fill="white"/>
<path fill-rule="evenodd" clip-rule="evenodd" d="M9.24482 10.4776C8.89503 11.4896 8.64854 12.632 8.51071 13.908L5.95406 13.5393C6.65993 12.4224 8.12438 10.4822 9.24482 10.4776ZM11.9914 7.15695C12.2555 6.92684 12.5212 6.74446 12.7855 6.5814C12.8047 6.60221 12.8248 6.62358 12.8511 6.63876L16.261 8.60749C16.2869 8.62239 16.3154 8.62915 16.343 8.63534C16.3345 8.94605 16.3094 9.26737 16.2417 9.61082C15.7921 11.8947 14.0695 14.0549 11.1225 16.0329L10.2997 15.5579L12.1278 12.3915C12.2057 12.2566 12.1593 12.0849 12.0249 12.0073C11.8899 11.9294 11.7186 11.9753 11.6407 12.1103L9.81258 15.2766L8.98933 14.8013C9.22885 11.2601 10.2383 8.68825 11.9914 7.15695ZM15.6617 5.70821C15.83 6.00283 16.2365 6.83768 16.3294 7.99745L13.3448 6.27426C14.3956 5.77485 15.3219 5.70949 15.6617 5.70821ZM14.7392 13.6498C15.2945 14.6218 14.3469 16.8605 13.7326 18.0302L12.1355 16.0007C13.1716 15.2434 14.0377 14.4587 14.7392 13.6498ZM5.25009 13.6167C5.2034 13.6976 5.19976 13.7962 5.24034 13.88C5.26551 13.9309 5.30481 13.9731 5.35303 14.0009C5.38324 14.0184 5.41779 14.0305 5.45328 14.0354L8.45143 14.4674C8.45443 14.4678 8.45702 14.4667 8.46001 14.4671C8.44716 14.6266 8.42703 14.7774 8.41674 14.9403C8.41034 15.047 8.46452 15.1478 8.55707 15.2013L9.53134 15.7638L9.10947 16.4945C9.03185 16.6289 9.07748 16.8007 9.21241 16.8786C9.34686 16.9563 9.51898 16.9101 9.5966 16.7757L10.0185 16.045L10.9927 16.6075C11.0848 16.6606 11.1992 16.6572 11.2884 16.5983C11.4248 16.5082 11.5448 16.4151 11.6765 16.3242C11.6784 16.3266 11.6788 16.3294 11.6806 16.3318L13.5538 18.7122C13.5763 18.7408 13.6036 18.7644 13.6343 18.7821C13.682 18.8097 13.7382 18.8226 13.7949 18.819C13.8882 18.8125 13.9718 18.76 14.0185 18.6792C14.255 18.2695 16.2508 14.7024 15.1132 13.209C15.9939 12.084 16.5606 10.9134 16.796 9.70483C17.2996 7.12024 16.1043 5.34543 16.0531 5.27103C16.0048 5.20161 15.9288 5.15773 15.8441 5.15038C15.754 5.14321 13.6193 4.99542 11.6329 6.7239C10.7038 7.53202 9.97344 8.60809 9.43953 9.93336C7.5774 9.69483 5.48662 13.207 5.25009 13.6167Z" fill="white"/>
<defs>
<linearGradient id="paint0_linear" x1="23.8102" y1="23.8293" x2="-1.05612" y2="22.0356" gradientUnits="userSpaceOnUse">
<stop stop-color="#197ACF"/>
<stop offset="1" stop-color="#1A8DE9"/>
</linearGradient>
</defs>
</svg>
