<svg width="71" height="20" viewBox="0 0 71 20" fill="none" xmlns="http://www.w3.org/2000/svg">
<rect opacity="0.85" x="0.351562" width="70" height="20" rx="10" fill="white"/>
<path d="M41.7471 13.1797H40.8389V7.15918L39.0176 7.82812V7.00781L41.6055 6.03613H41.7471V13.1797ZM45.707 9.18555H46.3857C46.8122 9.17904 47.1475 9.06673 47.3916 8.84863C47.6357 8.63053 47.7578 8.33594 47.7578 7.96484C47.7578 7.13151 47.3428 6.71484 46.5127 6.71484C46.1221 6.71484 45.8096 6.82715 45.5752 7.05176C45.3441 7.27311 45.2285 7.56771 45.2285 7.93555H44.3252C44.3252 7.3724 44.5303 6.90527 44.9404 6.53418C45.3538 6.15983 45.8779 5.97266 46.5127 5.97266C47.1833 5.97266 47.709 6.15007 48.0898 6.50488C48.4707 6.8597 48.6611 7.35286 48.6611 7.98438C48.6611 8.29362 48.5602 8.5931 48.3584 8.88281C48.1598 9.17253 47.888 9.389 47.543 9.53223C47.9336 9.65592 48.2347 9.861 48.4463 10.1475C48.6611 10.4339 48.7686 10.7839 48.7686 11.1973C48.7686 11.8353 48.5602 12.3415 48.1436 12.7158C47.7269 13.0902 47.1849 13.2773 46.5176 13.2773C45.8503 13.2773 45.3066 13.0967 44.8867 12.7354C44.4701 12.374 44.2617 11.8971 44.2617 11.3047H45.1699C45.1699 11.679 45.292 11.9785 45.5361 12.2031C45.7803 12.4277 46.1074 12.54 46.5176 12.54C46.9538 12.54 47.2874 12.4261 47.5186 12.1982C47.7497 11.9704 47.8652 11.6432 47.8652 11.2168C47.8652 10.8034 47.7383 10.486 47.4844 10.2646C47.2305 10.0433 46.8643 9.92936 46.3857 9.92285H45.707V9.18555ZM50.0723 12.7061C50.0723 12.5498 50.1178 12.4196 50.209 12.3154C50.3034 12.2113 50.4434 12.1592 50.6289 12.1592C50.8145 12.1592 50.9544 12.2113 51.0488 12.3154C51.1465 12.4196 51.1953 12.5498 51.1953 12.7061C51.1953 12.8558 51.1465 12.9811 51.0488 13.082C50.9544 13.1829 50.8145 13.2334 50.6289 13.2334C50.4434 13.2334 50.3034 13.1829 50.209 13.082C50.1178 12.9811 50.0723 12.8558 50.0723 12.7061ZM50.0771 8.39453C50.0771 8.23828 50.1227 8.10807 50.2139 8.00391C50.3083 7.89974 50.4482 7.84766 50.6338 7.84766C50.8193 7.84766 50.9593 7.89974 51.0537 8.00391C51.1514 8.10807 51.2002 8.23828 51.2002 8.39453C51.2002 8.54427 51.1514 8.6696 51.0537 8.77051C50.9593 8.87142 50.8193 8.92188 50.6338 8.92188C50.4482 8.92188 50.3083 8.87142 50.2139 8.77051C50.1227 8.6696 50.0771 8.54427 50.0771 8.39453ZM57.0889 13.1797H52.4307V12.5303L54.8916 9.7959C55.2562 9.38249 55.5068 9.0472 55.6436 8.79004C55.7835 8.52962 55.8535 8.26107 55.8535 7.98438C55.8535 7.61328 55.7412 7.30892 55.5166 7.07129C55.292 6.83366 54.9925 6.71484 54.6182 6.71484C54.1689 6.71484 53.819 6.84342 53.5684 7.10059C53.321 7.35449 53.1973 7.70931 53.1973 8.16504H52.2939C52.2939 7.51074 52.5039 6.98177 52.9238 6.57812C53.347 6.17448 53.9118 5.97266 54.6182 5.97266C55.279 5.97266 55.8014 6.14681 56.1855 6.49512C56.5697 6.84017 56.7617 7.30078 56.7617 7.87695C56.7617 8.57682 56.3158 9.41016 55.4238 10.377L53.5195 12.4424H57.0889V13.1797ZM62.5039 10.1475C62.5039 11.2054 62.3232 11.9915 61.9619 12.5059C61.6006 13.0202 61.0358 13.2773 60.2676 13.2773C59.5091 13.2773 58.9476 13.0267 58.583 12.5254C58.2184 12.0208 58.0296 11.2689 58.0166 10.2695V9.06348C58.0166 8.01855 58.1973 7.24219 58.5586 6.73438C58.9199 6.22656 59.4863 5.97266 60.2578 5.97266C61.0228 5.97266 61.5859 6.21842 61.9473 6.70996C62.3086 7.19824 62.4941 7.95345 62.5039 8.97559V10.1475ZM61.6006 8.91211C61.6006 8.14714 61.4932 7.59049 61.2783 7.24219C61.0635 6.89062 60.7233 6.71484 60.2578 6.71484C59.7956 6.71484 59.4587 6.889 59.2471 7.2373C59.0355 7.58561 58.9264 8.12109 58.9199 8.84375V10.2891C58.9199 11.0573 59.0306 11.6253 59.252 11.9932C59.4766 12.3577 59.8151 12.54 60.2676 12.54C60.7135 12.54 61.0439 12.3675 61.2588 12.0225C61.4769 11.6774 61.5908 11.1338 61.6006 10.3916V8.91211Z" fill="#197ACF"/>
<path fill-rule="evenodd" clip-rule="evenodd" d="M21.9496 14.3027L20.1438 12.9484V11.3576L21.9496 10.0713V14.3027ZM19.5419 11.2029V13.7008C19.5419 14.1986 19.1368 14.6037 18.639 14.6037H9.61026C9.11248 14.6037 8.70739 14.1986 8.70739 13.7008V10.6912C8.70739 10.1934 9.11248 9.78836 9.61026 9.78836H18.639C19.1368 9.78836 19.5419 10.1934 19.5419 10.6912V11.2029ZM9.91122 7.07973C9.91122 5.91802 10.8562 4.97301 12.0179 4.97301C13.1796 4.97301 14.1246 5.91802 14.1246 7.07973C14.1246 8.24143 13.1796 9.18644 12.0179 9.18644C10.8562 9.18644 9.91122 8.24143 9.91122 7.07973ZM15.1515 9.18644H13.6997C14.0019 8.94507 14.2492 8.64291 14.4256 8.295C14.602 8.64291 14.8494 8.94507 15.1515 9.18644ZM16.8333 4.97301C17.995 4.97301 18.94 5.91802 18.94 7.07973C18.94 8.24143 17.995 9.18644 16.8333 9.18644C15.6716 9.18644 14.7266 8.24143 14.7266 7.07973C14.7266 5.91802 15.6716 4.97301 16.8333 4.97301ZM22.3884 9.22015C22.2879 9.16838 22.1669 9.17681 22.076 9.24242L20.1366 10.6238C20.1011 9.82568 19.4462 9.18644 18.639 9.18644H18.515C19.1356 8.68986 19.5419 7.93505 19.5419 7.07973C19.5419 5.58637 18.3266 4.37109 16.8333 4.37109C15.7787 4.37109 14.8728 4.98324 14.4256 5.86445C13.9784 4.98324 13.0725 4.37109 12.0179 4.37109C10.5246 4.37109 9.3093 5.58637 9.3093 7.07973C9.3093 7.93505 9.7156 8.68986 10.3362 9.18644H9.61026C8.78022 9.18644 8.10547 9.86119 8.10547 10.6912V13.7008C8.10547 14.5309 8.78022 15.2056 9.61026 15.2056H18.639C19.4691 15.2056 20.1438 14.5309 20.1438 13.7008L22.07 15.1454C22.1229 15.1852 22.1867 15.2056 22.2505 15.2056C22.2963 15.2056 22.3426 15.1948 22.3854 15.1737C22.4871 15.1226 22.5515 15.0184 22.5515 14.9047V9.4874C22.5515 9.37424 22.4889 9.27191 22.3884 9.22015Z" fill="#197ACF"/>
<path d="M30.3672 4.03516V15.5437" stroke="#197ACF" stroke-width="0.5"/>
</svg>
