<svg width="67" height="20" viewBox="0 0 67 20" fill="none" xmlns="http://www.w3.org/2000/svg">
<rect opacity="0.85" width="67" height="20" rx="10" fill="white"/>
<path fill-rule="evenodd" clip-rule="evenodd" d="M12.4226 6.83827H15.3249C15.4851 6.83827 15.6151 6.70825 15.6151 6.54804C15.6151 6.38784 15.4851 6.25781 15.3249 6.25781H12.4226C12.2623 6.25781 12.1323 6.38784 12.1323 6.54804C12.1323 6.70825 12.2623 6.83827 12.4226 6.83827Z" fill="#197ACF"/>
<path fill-rule="evenodd" clip-rule="evenodd" d="M12.4226 8.58046H15.3249C15.4851 8.58046 15.6151 8.45044 15.6151 8.29023C15.6151 8.13002 15.4851 8 15.3249 8H12.4226C12.2623 8 12.1323 8.13002 12.1323 8.29023C12.1323 8.45044 12.2623 8.58046 12.4226 8.58046Z" fill="#197ACF"/>
<path fill-rule="evenodd" clip-rule="evenodd" d="M12.4226 10.3187H15.3249C15.4851 10.3187 15.6151 10.1887 15.6151 10.0285C15.6151 9.8683 15.4851 9.73828 15.3249 9.73828H12.4226C12.2623 9.73828 12.1323 9.8683 12.1323 10.0285C12.1323 10.1887 12.2623 10.3187 12.4226 10.3187Z" fill="#197ACF"/>
<path fill-rule="evenodd" clip-rule="evenodd" d="M15.3249 11.4805H12.4226C12.2623 11.4805 12.1323 11.6105 12.1323 11.7707C12.1323 11.9309 12.2623 12.0609 12.4226 12.0609H15.3249C15.4851 12.0609 15.6151 11.9309 15.6151 11.7707C15.6151 11.6105 15.4851 11.4805 15.3249 11.4805Z" fill="#197ACF"/>
<path fill-rule="evenodd" clip-rule="evenodd" d="M18.227 6.83827H21.1293C21.2895 6.83827 21.4195 6.70825 21.4195 6.54804C21.4195 6.38784 21.2895 6.25781 21.1293 6.25781H18.227C18.0668 6.25781 17.9368 6.38784 17.9368 6.54804C17.9368 6.70825 18.0668 6.83827 18.227 6.83827Z" fill="#197ACF"/>
<path fill-rule="evenodd" clip-rule="evenodd" d="M18.227 8.58046H21.1293C21.2895 8.58046 21.4195 8.45044 21.4195 8.29023C21.4195 8.13002 21.2895 8 21.1293 8H18.227C18.0668 8 17.9368 8.13002 17.9368 8.29023C17.9368 8.45044 18.0668 8.58046 18.227 8.58046Z" fill="#197ACF"/>
<path fill-rule="evenodd" clip-rule="evenodd" d="M18.227 10.3187H21.1293C21.2895 10.3187 21.4195 10.1887 21.4195 10.0285C21.4195 9.8683 21.2895 9.73828 21.1293 9.73828H18.227C18.0668 9.73828 17.9368 9.8683 17.9368 10.0285C17.9368 10.1887 18.0668 10.3187 18.227 10.3187Z" fill="#197ACF"/>
<path fill-rule="evenodd" clip-rule="evenodd" d="M18.227 12.0609H21.1293C21.2895 12.0609 21.4195 11.9309 21.4195 11.7707C21.4195 11.6105 21.2895 11.4805 21.1293 11.4805H18.227C18.0668 11.4805 17.9368 11.6105 17.9368 11.7707C17.9368 11.9309 18.0668 12.0609 18.227 12.0609Z" fill="#197ACF"/>
<path fill-rule="evenodd" clip-rule="evenodd" d="M16.4857 6.54724V13.8413C16.1102 13.4553 15.5924 13.2225 15.0346 13.2225H10.9713V5.09609H15.0346C15.8344 5.09609 16.4857 5.74736 16.4857 6.54724ZM18.5173 5.09609H22.5806V13.2225H18.5173C17.9491 13.2225 17.4353 13.4588 17.0662 13.8367V6.54724C17.0662 5.74736 17.7174 5.09609 18.5173 5.09609ZM10.6811 13.803H15.0346C15.6144 13.803 16.138 14.1495 16.3685 14.6859C16.4462 14.8658 16.4857 15.0574 16.4857 15.2542C16.4857 15.4144 16.6157 15.5444 16.7759 15.5444C16.9361 15.5444 17.0662 15.4144 17.0662 15.2542C17.0662 14.4543 17.7174 13.803 18.5173 13.803H22.8708C23.031 13.803 23.161 13.673 23.161 13.5128V4.80586C23.161 4.64565 23.031 4.51562 22.8708 4.51562H18.5173C17.7743 4.51562 17.13 4.92079 16.7759 5.5175C16.4219 4.92079 15.7775 4.51562 15.0346 4.51562H10.6811C10.5209 4.51562 10.3909 4.64565 10.3909 4.80586V13.5128C10.3909 13.673 10.5209 13.803 10.6811 13.803Z" fill="#197ACF"/>
<path d="M44.9641 9.19043C44.9641 9.70475 44.8111 10.1393 44.5051 10.4941C44.2024 10.8457 43.828 11.0215 43.3821 11.0215C43.1477 11.0215 42.9264 10.9792 42.718 10.8945C42.5097 10.8066 42.2672 10.6423 41.9905 10.4014C41.717 10.1605 41.5201 10.0107 41.3997 9.95215C41.2792 9.89355 41.1506 9.86426 41.0139 9.86426C40.76 9.86426 40.5647 9.95215 40.428 10.1279C40.2913 10.3005 40.2229 10.5397 40.2229 10.8457L39.4368 10.8555C39.4368 10.3346 39.5865 9.90658 39.886 9.57129C40.1855 9.236 40.5614 9.06836 41.0139 9.06836C41.2613 9.06836 41.4989 9.12044 41.7268 9.22461C41.9547 9.32878 42.2118 9.5127 42.4983 9.77637C42.7847 10.0368 43.0321 10.1833 43.2405 10.2158L43.3821 10.2256C43.6295 10.2256 43.8297 10.1312 43.9827 9.94238C44.1389 9.75358 44.217 9.50456 44.217 9.19531L44.9641 9.19043ZM46.6096 9.41992L46.9709 5.875H50.6135V6.70996H47.7375L47.5227 8.64844C47.871 8.44336 48.2665 8.34082 48.7092 8.34082C49.357 8.34082 49.8713 8.55566 50.2522 8.98535C50.6331 9.41178 50.8235 9.98958 50.8235 10.7188C50.8235 11.4512 50.6249 12.029 50.2278 12.4521C49.8339 12.8721 49.2821 13.082 48.5725 13.082C47.9443 13.082 47.4316 12.9079 47.0344 12.5596C46.6373 12.2113 46.4111 11.7295 46.3557 11.1143H47.2102C47.2655 11.5212 47.4104 11.8288 47.6448 12.0371C47.8792 12.2422 48.1884 12.3447 48.5725 12.3447C48.9924 12.3447 49.3212 12.2015 49.5588 11.915C49.7997 11.6286 49.9202 11.2331 49.9202 10.7285C49.9202 10.2533 49.79 9.8724 49.5295 9.58594C49.2724 9.29622 48.929 9.15137 48.4993 9.15137C48.1054 9.15137 47.7961 9.23763 47.5715 9.41016L47.3323 9.60547L46.6096 9.41992ZM52.7522 7.70117L52.7766 8.28711C53.164 7.83138 53.6864 7.60352 54.344 7.60352C55.0829 7.60352 55.5859 7.88672 55.8528 8.45312C56.0286 8.19922 56.2564 7.99414 56.5364 7.83789C56.8196 7.68164 57.1532 7.60352 57.5374 7.60352C58.6962 7.60352 59.2854 8.21712 59.3049 9.44434V12.9844H58.4016V9.49805C58.4016 9.12044 58.3153 8.83887 58.1428 8.65332C57.9703 8.46452 57.6806 8.37012 57.2737 8.37012C56.9384 8.37012 56.6601 8.47103 56.4387 8.67285C56.2174 8.87142 56.0888 9.13997 56.053 9.47852V12.9844H55.1448V9.52246C55.1448 8.75423 54.7688 8.37012 54.0168 8.37012C53.4244 8.37012 53.0191 8.6224 52.801 9.12695V12.9844H51.8977V7.70117H52.7522Z" fill="#197ACF"/>
<path d="M30.9805 3.83984V15.3484" stroke="#197ACF" stroke-width="0.5"/>
</svg>
