<svg width="14" height="14" viewBox="0 0 14 14" fill="none" xmlns="http://www.w3.org/2000/svg">
<path fill-rule="evenodd" clip-rule="evenodd" d="M13.394 8.07137C13.394 8.59965 12.9653 9.02956 12.4382 9.02956H11.6304V4.43768H12.4376C12.9653 4.43768 13.394 4.86759 13.394 5.39587V8.0708V8.07137ZM7.0293 13.3634C6.7099 13.3634 6.45068 13.1042 6.45068 12.7848C6.45068 12.4659 6.7099 12.2061 7.0293 12.2061C7.34869 12.2061 7.60791 12.4659 7.60791 12.7848C7.60791 13.1042 7.34869 13.3634 7.0293 13.3634ZM2.42759 9.03014H1.62042C1.0933 9.03014 0.664551 8.60023 0.664551 8.07137V5.39645C0.664551 4.86817 1.0933 4.43826 1.62042 4.43826H2.42759V9.03072V9.03014ZM12.4376 3.85965H11.6096C11.5298 2.82914 11.068 1.87327 10.3083 1.16389C9.54279 0.449302 8.54584 0.0546875 7.50087 0.0546875H6.55715C5.51275 0.0546875 4.5158 0.449302 3.7503 1.16389C2.99058 1.87269 2.52884 2.82972 2.44899 3.85965H1.62042C0.773909 3.85965 0.0859375 4.54936 0.0859375 5.39645V8.07137C0.0859375 8.91904 0.773909 9.60875 1.62042 9.60875H2.71689C2.87659 9.60875 3.0062 9.47914 3.0062 9.31944V4.15995L3.02529 3.9123C3.09183 3.02413 3.48992 2.19845 4.14491 1.58686C4.80279 0.972368 5.65972 0.633301 6.55715 0.633301L7.50087 0.633879C8.39887 0.633879 9.2558 0.972368 9.91368 1.58628C10.5687 2.19845 10.9668 3.02471 11.0333 3.91288L11.0524 4.14838L11.0518 9.30787L11.0327 9.55378C10.9187 10.9882 9.96287 12.2027 8.63263 12.6372L8.18016 12.724C8.14834 12.1153 7.64668 11.6275 7.0293 11.6275C6.39109 11.6275 5.87207 12.146 5.87207 12.7842C5.87207 13.4235 6.39109 13.9414 7.0293 13.9414C7.46441 13.9414 7.83993 13.6978 8.03724 13.3414L8.77671 13.1962C10.3621 12.6812 11.473 11.2734 11.6084 9.60875H12.4382C13.2847 9.60875 13.9727 8.91904 13.9727 8.07137V5.39645C13.9727 4.54936 13.2841 3.85965 12.4376 3.85965Z" fill="white"/>
</svg>
