<svg width="24" height="24" viewBox="0 0 24 24" fill="none" xmlns="http://www.w3.org/2000/svg">
<path fill-rule="evenodd" clip-rule="evenodd" d="M21.7096 8.84449L12.6377 13.5772C12.3048 13.7512 11.6962 13.7512 11.3633 13.5772L5.85594 10.7035L12.1023 9.23449C12.3432 9.17738 12.4914 8.9373 12.4343 8.69723C12.3789 8.45805 12.1397 8.30901 11.8988 8.36524L4.64487 10.0716L2.29146 8.84449C2.25755 8.82664 2.23256 8.81058 2.21382 8.80344C2.23256 8.78916 2.25755 8.7722 2.29146 8.75435L11.3633 4.02253C11.6962 3.84761 12.3048 3.84761 12.6377 4.02253L21.7096 8.75435C21.7435 8.7722 21.7685 8.78916 21.7872 8.7963C21.7685 8.81058 21.7435 8.82664 21.7096 8.84449ZM18.2317 14.3849C18.304 14.6785 18.129 15.0747 17.8658 15.2166L12.6003 18.044C12.2861 18.2126 11.7149 18.2126 11.4008 18.044L6.13528 15.2166C5.87201 15.0747 5.69798 14.6785 5.76313 14.409L6.49137 12.0422L10.9501 14.3679C11.2446 14.5223 11.6221 14.5991 12.0005 14.5991C12.3789 14.5991 12.7564 14.5223 13.0509 14.3679L17.5097 12.0422L18.2317 14.3849ZM2.6297 17.2782C2.38428 17.2782 2.18347 17.0783 2.18347 16.832C2.18347 16.5857 2.38428 16.3858 2.6297 16.3858C2.87513 16.3858 3.07593 16.5857 3.07593 16.832C3.07593 17.0783 2.87513 17.2782 2.6297 17.2782ZM22.1228 7.96363L13.0509 3.23092C12.4619 2.92303 11.5391 2.92303 10.9501 3.23092L1.87825 7.96363C1.5052 8.15819 1.29102 8.46341 1.29102 8.79987C1.29102 9.13632 1.5052 9.44065 1.87825 9.6361L3.9077 10.6946L2.29146 15.5415C1.7185 15.6923 1.29102 16.2108 1.29102 16.832C1.29102 17.413 1.66496 17.9029 2.18347 18.0877V19.5094C2.18347 19.7557 2.38339 19.9556 2.6297 19.9556C2.87602 19.9556 3.07593 19.7557 3.07593 19.5094V18.0877C3.59445 17.9029 3.96839 17.413 3.96839 16.832C3.96839 16.3001 3.65514 15.8432 3.20445 15.6281L4.70913 11.1122L5.68816 11.6227L4.90369 14.1707C4.73323 14.8623 5.08843 15.6673 5.71315 16.0029L10.9795 18.8302C11.2705 18.9864 11.6355 19.0649 12.0005 19.0649C12.3655 19.0649 12.7306 18.9864 13.0224 18.8302L18.2879 16.0029C18.9126 15.6673 19.2687 14.8623 19.0902 14.1466L18.3129 11.6227L22.1228 9.6361C22.4958 9.44065 22.71 9.13632 22.71 8.79987C22.71 8.46341 22.4958 8.15819 22.1228 7.96363Z" fill="#999999" stroke="#999999" stroke-width="0.5"/>
</svg>
