<svg width="15" height="15" viewBox="0 0 15 15" fill="none" xmlns="http://www.w3.org/2000/svg">
<path fill-rule="evenodd" clip-rule="evenodd" d="M7.14417 13.3086C8.49982 13.3086 9.75575 12.8847 10.7817 12.1637L10.7856 12.1677L13.2386 14.6538C13.5554 14.9749 14.0725 14.9784 14.3936 14.6616C14.7147 14.3448 14.7182 13.8277 14.4014 13.5066L11.9852 11.0577C12.8752 9.99335 13.4099 8.63 13.4099 7.14259C13.4099 3.73378 10.6013 0.976562 7.14417 0.976562C3.68704 0.976562 0.878418 3.73378 0.878418 7.14259C0.878418 10.5514 3.68704 13.3086 7.14417 13.3086ZM2.51187 7.14257C2.51187 9.64244 4.58248 11.6752 7.14417 11.6752C9.70587 11.6752 11.7765 9.64244 11.7765 7.14257C11.7765 4.64271 9.70587 2.60999 7.14417 2.60999C4.58248 2.60999 2.51187 4.64271 2.51187 7.14257Z" fill="#999999"/>
</svg>
