<svg width="17" height="17" viewBox="0 0 17 17" fill="none" xmlns="http://www.w3.org/2000/svg">
<path d="M14.5156 12.9457L14.5125 7.94531C14.4998 6.61616 14.0511 5.32794 13.2352 4.2786C12.4193 3.22927 11.2814 2.47687 9.99634 2.13704C10.0069 2.07361 10.0133 2.00957 10.0156 1.94531C10.0156 1.54749 9.85759 1.16596 9.57629 0.884652C9.29498 0.603348 8.91345 0.445313 8.51562 0.445312C8.1178 0.445313 7.73627 0.603348 7.45496 0.884652C7.17366 1.16596 7.01562 1.54749 7.01562 1.94531C7.01795 2.00957 7.02439 2.0736 7.03491 2.13703C5.7495 2.47666 4.61114 3.2289 3.7947 4.27821C2.97826 5.32752 2.52889 6.61586 2.51562 7.94531V12.9457L0.515625 15.3855V16.9453H16.5156V15.3855L14.5156 12.9457Z" fill="url(#paint0_linear)"/>
<defs>
<linearGradient id="paint0_linear" x1="0.508525" y1="0.445313" x2="18.2026" y2="14.8669" gradientUnits="userSpaceOnUse">
<stop stop-color="white"/>
<stop offset="1" stop-color="#F8FDFF"/>
</linearGradient>
</defs>
</svg>
