<svg width="82" height="20" viewBox="0 0 82 20" fill="none" xmlns="http://www.w3.org/2000/svg">
<rect opacity="0.85" width="82" height="20" rx="10" fill="white"/>
<g clip-path="url(#clip0)">
<path fill-rule="evenodd" clip-rule="evenodd" d="M13.58 9.25391H9.22621C9.07601 9.25391 8.9541 9.37581 8.9541 9.52602C8.9541 9.67622 9.07601 9.79813 9.22621 9.79813H13.58C13.7302 9.79813 13.8521 9.67622 13.8521 9.52602C13.8521 9.37581 13.7302 9.25391 13.58 9.25391Z" fill="#197ACF"/>
<path fill-rule="evenodd" clip-rule="evenodd" d="M13.58 10.8867H9.22621C9.07601 10.8867 8.9541 11.0086 8.9541 11.1588C8.9541 11.309 9.07601 11.4309 9.22621 11.4309H13.58C13.7302 11.4309 13.8521 11.309 13.8521 11.1588C13.8521 11.0086 13.7302 10.8867 13.58 10.8867Z" fill="#197ACF"/>
<path fill-rule="evenodd" clip-rule="evenodd" d="M13.58 12.5195H9.22621C9.07601 12.5195 8.9541 12.6414 8.9541 12.7916C8.9541 12.9418 9.07601 13.0638 9.22621 13.0638H13.58C13.7302 13.0638 13.8521 12.9418 13.8521 12.7916C13.8521 12.6414 13.7302 12.5195 13.58 12.5195Z" fill="#197ACF"/>
<path fill-rule="evenodd" clip-rule="evenodd" d="M17.1158 12.2467C17.1158 12.3969 16.9934 12.5188 16.8437 12.5188H14.9389V9.7977H16.2995C16.4497 9.7977 16.5716 9.67579 16.5716 9.52559C16.5716 9.37538 16.4497 9.25347 16.2995 9.25347H14.9389V8.43714C14.9389 8.34136 14.9193 8.25047 14.8888 8.16503H16.2995C16.4497 8.16503 16.5716 8.04312 16.5716 7.89292C16.5716 7.74271 16.4497 7.62081 16.2995 7.62081H14.1226H11.1294V5.1718C11.1294 5.0216 11.2518 4.89969 11.4015 4.89969H16.8437C16.9934 4.89969 17.1158 5.0216 17.1158 5.1718V12.2467ZM14.3947 15.512C14.3947 15.6622 14.2722 15.7841 14.1226 15.7841H8.68035C8.53069 15.7841 8.40824 15.6622 8.40824 15.512V8.43714C8.40824 8.28693 8.53069 8.16503 8.68035 8.16503H14.1226C14.2722 8.16503 14.3947 8.28693 14.3947 8.43714V15.512ZM17.66 5.1718C17.66 4.72173 17.2938 4.35547 16.8437 4.35547H11.4015C10.9514 4.35547 10.5851 4.72173 10.5851 5.1718V7.62081H8.68035C8.23028 7.62081 7.86401 7.98707 7.86401 8.43714V15.512C7.86401 15.9621 8.23028 16.3284 8.68035 16.3284H14.1226C14.5726 16.3284 14.9389 15.9621 14.9389 15.512V13.063H16.8437C17.2938 13.063 17.66 12.6968 17.66 12.2467V5.1718Z" fill="#197ACF"/>
<path fill-rule="evenodd" clip-rule="evenodd" d="M16.2995 5.98828H11.9457C11.7955 5.98828 11.6736 6.11019 11.6736 6.26039C11.6736 6.4106 11.7955 6.5325 11.9457 6.5325H16.2995C16.4497 6.5325 16.5716 6.4106 16.5716 6.26039C16.5716 6.11019 16.4497 5.98828 16.2995 5.98828Z" fill="#197ACF"/>
</g>
<path d="M36.7715 13.7344H35.8633V7.71387L34.042 8.38281V7.5625L36.6299 6.59082H36.7715V13.7344ZM42.9629 6.62012V7.38672H42.7969C42.0938 7.39974 41.5339 7.60807 41.1172 8.01172C40.7005 8.41536 40.4596 8.9834 40.3945 9.71582C40.7689 9.28613 41.2799 9.07129 41.9277 9.07129C42.5462 9.07129 43.0394 9.28939 43.4072 9.72559C43.7783 10.1618 43.9639 10.7249 43.9639 11.415C43.9639 12.1475 43.7637 12.7334 43.3633 13.1729C42.9661 13.6123 42.4323 13.832 41.7617 13.832C41.0814 13.832 40.5296 13.5716 40.1064 13.0508C39.6833 12.5267 39.4717 11.8529 39.4717 11.0293V10.6826C39.4717 9.37402 39.75 8.37467 40.3066 7.68457C40.8665 6.99121 41.6982 6.63639 42.8018 6.62012H42.9629ZM41.7764 9.82324C41.4671 9.82324 41.1823 9.91602 40.9219 10.1016C40.6615 10.2871 40.4808 10.5199 40.3799 10.7998V11.1318C40.3799 11.7178 40.5117 12.1898 40.7754 12.5479C41.0391 12.9059 41.3678 13.085 41.7617 13.085C42.1686 13.085 42.4876 12.9352 42.7188 12.6357C42.9531 12.3363 43.0703 11.944 43.0703 11.459C43.0703 10.9707 42.9515 10.5768 42.7139 10.2773C42.4795 9.97461 42.167 9.82324 41.7764 9.82324ZM49.8428 10.5654C49.0387 10.3343 48.4528 10.0511 48.085 9.71582C47.7204 9.37728 47.5381 8.96061 47.5381 8.46582C47.5381 7.90592 47.7611 7.44368 48.207 7.0791C48.6562 6.71126 49.2389 6.52734 49.9551 6.52734C50.4434 6.52734 50.8779 6.62174 51.2588 6.81055C51.6429 6.99935 51.9391 7.25977 52.1475 7.5918C52.359 7.92383 52.4648 8.28678 52.4648 8.68066H51.5225C51.5225 8.25098 51.3857 7.91406 51.1123 7.66992C50.8389 7.42253 50.4531 7.29883 49.9551 7.29883C49.4928 7.29883 49.1315 7.40137 48.8711 7.60645C48.6139 7.80827 48.4854 8.08984 48.4854 8.45117C48.4854 8.74089 48.6074 8.98665 48.8516 9.18848C49.099 9.38704 49.5173 9.56934 50.1064 9.73535C50.6989 9.90137 51.1611 10.0853 51.4932 10.2871C51.8285 10.4857 52.0758 10.7184 52.2354 10.9854C52.3981 11.2523 52.4795 11.5664 52.4795 11.9277C52.4795 12.5039 52.2549 12.9661 51.8057 13.3145C51.3564 13.6595 50.7559 13.832 50.0039 13.832C49.5156 13.832 49.0599 13.7393 48.6367 13.5537C48.2135 13.3649 47.8864 13.1077 47.6553 12.7822C47.4274 12.4567 47.3135 12.0872 47.3135 11.6738H48.2559C48.2559 12.1035 48.4137 12.4437 48.7295 12.6943C49.0485 12.9417 49.4733 13.0654 50.0039 13.0654C50.4987 13.0654 50.8779 12.9645 51.1416 12.7627C51.4053 12.5609 51.5371 12.2858 51.5371 11.9375C51.5371 11.5892 51.415 11.3206 51.1709 11.1318C50.9268 10.9398 50.484 10.751 49.8428 10.5654ZM54.5254 13.7344H53.6221V6.23438H54.5254V13.7344ZM56.957 13.7344H56.0537V8.45117H56.957V13.7344ZM55.9805 7.0498C55.9805 6.90332 56.0244 6.77962 56.1123 6.67871C56.2035 6.5778 56.3369 6.52734 56.5127 6.52734C56.6885 6.52734 56.8219 6.5778 56.9131 6.67871C57.0042 6.77962 57.0498 6.90332 57.0498 7.0498C57.0498 7.19629 57.0042 7.31836 56.9131 7.41602C56.8219 7.51367 56.6885 7.5625 56.5127 7.5625C56.3369 7.5625 56.2035 7.51367 56.1123 7.41602C56.0244 7.31836 55.9805 7.19629 55.9805 7.0498ZM58.1875 11.0488C58.1875 10.2383 58.3796 9.58724 58.7637 9.0957C59.1478 8.60091 59.6507 8.35352 60.2725 8.35352C60.891 8.35352 61.3809 8.5651 61.7422 8.98828V6.23438H62.6455V13.7344H61.8154L61.7715 13.168C61.4102 13.6107 60.9072 13.832 60.2627 13.832C59.6507 13.832 59.151 13.5814 58.7637 13.0801C58.3796 12.5788 58.1875 11.9245 58.1875 11.1172V11.0488ZM59.0908 11.1514C59.0908 11.7503 59.2145 12.2191 59.4619 12.5576C59.7093 12.8962 60.0511 13.0654 60.4873 13.0654C61.0602 13.0654 61.4785 12.8083 61.7422 12.2939V9.86719C61.472 9.36914 61.057 9.12012 60.4971 9.12012C60.0544 9.12012 59.7093 9.29102 59.4619 9.63281C59.2145 9.97461 59.0908 10.4808 59.0908 11.1514ZM66.2441 13.832C65.528 13.832 64.9453 13.5977 64.4961 13.1289C64.0469 12.6569 63.8223 12.027 63.8223 11.2393V11.0732C63.8223 10.5492 63.9215 10.082 64.1201 9.67188C64.3219 9.25846 64.6019 8.9362 64.96 8.70508C65.3213 8.4707 65.7119 8.35352 66.1318 8.35352C66.8187 8.35352 67.3525 8.57975 67.7334 9.03223C68.1143 9.4847 68.3047 10.1325 68.3047 10.9756V11.3516H64.7256C64.7386 11.8724 64.89 12.2939 65.1797 12.6162C65.4727 12.9352 65.8438 13.0947 66.293 13.0947C66.612 13.0947 66.8822 13.0296 67.1035 12.8994C67.3249 12.7692 67.5186 12.5967 67.6846 12.3818L68.2363 12.8115C67.7936 13.4919 67.1296 13.832 66.2441 13.832ZM66.1318 9.0957C65.7673 9.0957 65.4613 9.22917 65.2139 9.49609C64.9665 9.75977 64.8135 10.1309 64.7549 10.6094H67.4014V10.541C67.3753 10.082 67.2516 9.72721 67.0303 9.47656C66.8089 9.22266 66.5094 9.0957 66.1318 9.0957ZM72.4307 12.333C72.4307 12.0889 72.3379 11.9001 72.1523 11.7666C71.9701 11.6299 71.6494 11.5127 71.1904 11.415C70.7347 11.3174 70.3717 11.2002 70.1016 11.0635C69.8346 10.9268 69.6361 10.764 69.5059 10.5752C69.3789 10.3864 69.3154 10.1618 69.3154 9.90137C69.3154 9.46842 69.4977 9.10221 69.8623 8.80273C70.2301 8.50326 70.6989 8.35352 71.2686 8.35352C71.8675 8.35352 72.3525 8.50814 72.7236 8.81738C73.098 9.12663 73.2852 9.52214 73.2852 10.0039H72.377C72.377 9.75651 72.2712 9.54329 72.0596 9.36426C71.8512 9.18522 71.5876 9.0957 71.2686 9.0957C70.9398 9.0957 70.6826 9.16732 70.4971 9.31055C70.3115 9.45378 70.2188 9.64095 70.2188 9.87207C70.2188 10.0902 70.305 10.2546 70.4775 10.3652C70.6501 10.4759 70.9609 10.5817 71.4102 10.6826C71.8626 10.7835 72.2288 10.904 72.5088 11.0439C72.7887 11.1839 72.9954 11.3532 73.1289 11.5518C73.2656 11.7471 73.334 11.9863 73.334 12.2695C73.334 12.7415 73.1452 13.1208 72.7676 13.4072C72.39 13.6904 71.9001 13.832 71.2979 13.832C70.8747 13.832 70.5003 13.7572 70.1748 13.6074C69.8493 13.4577 69.5938 13.2493 69.4082 12.9824C69.2259 12.7122 69.1348 12.4209 69.1348 12.1084H70.0381C70.0544 12.4111 70.1748 12.652 70.3994 12.8311C70.6273 13.0068 70.9268 13.0947 71.2979 13.0947C71.6396 13.0947 71.9131 13.0264 72.1182 12.8896C72.3265 12.7497 72.4307 12.5641 72.4307 12.333Z" fill="#197ACF"/>
<path d="M25.2119 4.58984V16.0984" stroke="#197ACF" stroke-width="0.5"/>
<defs>
<clipPath id="clip0">
<rect width="13.0613" height="13.0613" fill="white" transform="translate(6.23145 3.8125)"/>
</clipPath>
</defs>
</svg>
