<svg width="14" height="14" viewBox="0 0 14 14" fill="none" xmlns="http://www.w3.org/2000/svg">
<path d="M6.9985 1.40006C5.56383 1.39956 4.18444 1.95338 3.14844 2.94584L3.14872 1.75006C3.14829 1.62661 3.09894 1.50836 3.01149 1.42122C2.92404 1.33408 2.80562 1.28516 2.68217 1.28516C2.55872 1.28516 2.4403 1.33408 2.35285 1.42122C2.2654 1.50836 2.21605 1.62661 2.21562 1.75006L2.21503 4.0834C2.2151 4.20711 2.26427 4.32575 2.35176 4.41323C2.43924 4.50071 2.55787 4.54988 2.68159 4.54995H5.01492C5.07619 4.54995 5.13686 4.53788 5.19346 4.51443C5.25007 4.49099 5.3015 4.45662 5.34482 4.4133C5.38815 4.36997 5.42251 4.31854 5.44596 4.26194C5.46941 4.20533 5.48147 4.14466 5.48147 4.0834C5.48147 4.02213 5.46941 3.96146 5.44596 3.90485C5.42251 3.84825 5.38815 3.79682 5.34482 3.75349C5.3015 3.71017 5.25007 3.67581 5.19346 3.65236C5.13686 3.62891 5.07619 3.61685 5.01492 3.61685H3.80469C4.66421 2.79358 5.80831 2.33381 6.9985 2.3334C7.92147 2.3334 8.82372 2.60709 9.59114 3.11986C10.3586 3.63263 10.9567 4.36146 11.3099 5.21417C11.6631 6.06689 11.7556 7.00519 11.5755 7.91043C11.3955 8.81567 10.951 9.64719 10.2984 10.2998C9.64575 10.9525 8.81424 11.397 7.909 11.577C7.00377 11.7571 6.06546 11.6647 5.21274 11.3115C4.36001 10.9584 3.63117 10.3602 3.11837 9.59282C2.60558 8.82541 2.33186 7.92318 2.33183 7.0002V7.00006C2.33205 6.93865 2.32014 6.87779 2.29678 6.82099C2.27343 6.76418 2.23909 6.71255 2.19574 6.66904C2.15239 6.62554 2.10088 6.59102 2.04416 6.56746C1.98744 6.54391 1.92662 6.53179 1.86521 6.53179C1.80379 6.53179 1.74298 6.54391 1.68626 6.56746C1.62953 6.59102 1.57802 6.62554 1.53467 6.66904C1.49132 6.71255 1.45698 6.76418 1.43363 6.82099C1.41028 6.87779 1.39837 6.93865 1.39858 7.00006H1.39844C1.39843 8.10765 1.72685 9.19037 2.34219 10.1113C2.95752 11.0322 3.83213 11.75 4.85541 12.1739C5.87868 12.5977 7.00467 12.7087 8.09098 12.4926C9.17729 12.2765 10.1751 11.7432 10.9583 10.96C11.7415 10.1768 12.2749 9.17897 12.4909 8.09266C12.707 7.00635 12.5961 5.88036 12.1723 4.85708C11.7484 3.8338 11.0307 2.95919 10.1097 2.34385C9.1888 1.7285 8.10609 1.40006 6.9985 1.40006Z" fill="#999999"/>
<path d="M6.77905 3.80859C6.65533 3.80866 6.5367 3.85783 6.44922 3.94532C6.36174 4.0328 6.31256 4.15143 6.3125 4.27515V7.37069C6.3125 7.46639 6.34189 7.55979 6.39671 7.63824C6.45152 7.71669 6.52911 7.77641 6.61898 7.80933L8.61051 8.53621C8.66189 8.55458 8.71603 8.56402 8.77058 8.56413C8.88032 8.5642 8.98657 8.52561 9.07067 8.45512C9.15478 8.38463 9.21135 8.28677 9.23046 8.17871C9.24957 8.07065 9.22999 7.95931 9.17517 7.86426C9.12034 7.7692 9.03377 7.6965 8.93066 7.65894L7.24561 7.04427V4.27515C7.24554 4.15143 7.19637 4.0328 7.10889 3.94531C7.0214 3.85783 6.90277 3.80866 6.77905 3.80859Z" fill="#999999"/>
</svg>
